# xmcd CD database file
#
# Track frame offsets:
#	150
#	16225
#	28282
#	42070
#	58877
#	76035
#	94160
#	110657
#	130090
#	147077
#	163330
#	177667
#
# Disc length: 2683 seconds
#
# Revision: 17
# Processed by: cddbd v1.5.2PL0 Copyright (c) Steve Scherf et al.
# Submitted via: CDex 2.23
#
DISCID=a20a790c
DTITLE=Shania Twain - For The Love Of Him
DYEAR=1999
DGENRE=Country
TTITLE0=For The Love Of Him
TTITLE1=Bite My Lip
TTITLE2=Wild And Wicked
TTITLE3=Send It With Love
TTITLE4=(Don't Gimme That) Once Over
TTITLE5=Hate To Love
TTITLE6=Luv Eyes
TTITLE7=I Lost My Heart When I Found You
TTITLE8=The Rhythm Made Me Do It
TTITLE9=Two Hearts One Love
TTITLE10=Half Breed
TTITLE11=For The Love Of Him (Dance Mix)
EXTD=eine andere Version des Albums "For The Love Of Him",\nerschienen 1999 YEAR: 1999
EXTT0=
EXTT1=
EXTT2=
EXTT3=
EXTT4=
EXTT5=
EXTT6=
EXTT7=
EXTT8=
EXTT9=
EXTT10=
EXTT11=
PLAYORDER=
